<svg xmlns="http://www.w3.org/2000/svg" viewBox="0 0 64 64"><defs><linearGradient id="g" x1="0" y1="0" x2="1" y2="1"><stop offset="0" stop-color="#10b981"/><stop offset="1" stop-color="#047857"/></linearGradient></defs><rect width="64" height="64" rx="14" fill="url(#g)"/><g transform="translate(5.44 2.74) scale(0.83)" fill="none" stroke="#fff" stroke-width="3.4" stroke-linecap="round" stroke-linejoin="round">
  
  <path d="M32 21C27 17.2 18.5 16.2 10.5 17.6V47.4C18.5 46 27 47 32 50.6"/>
  <path d="M32 21C37 17.2 45.5 16.2 53.5 17.6V47.4C45.5 46 37 47 32 50.6"/>
  <path d="M6 22V51.6C16 50 25.5 51 32 54.6C38.5 51 48 50 58 51.6V22"/>
  <path d="M32 41.5V50.6"/>
  <circle cx="32" cy="30.5" r="2.1" fill="#fff" stroke="none"/>
  <path d="M35.6 26.9A5.1 5.1 0 0 1 35.6 34.1"/>
  <path d="M28.4 26.9A5.1 5.1 0 0 0 28.4 34.1"/>
  <path d="M38.6 23.9A9.3 9.3 0 0 1 38.6 37.1"/>
  <path d="M25.4 23.9A9.3 9.3 0 0 0 25.4 37.1"/>
</g></svg>
